<?xml version="1.0" encoding="UTF-8" standalone="no"?><!DOCTYPE svg PUBLIC "-//W3C//DTD SVG 1.1//EN" "http://www.w3.org/Graphics/SVG/1.1/DTD/svg11.dtd"><svg width="100%" height="100%" viewBox="0 0 512 512" version="1.1" xmlns="http://www.w3.org/2000/svg" xmlns:xlink="http://www.w3.org/1999/xlink" xml:space="preserve" xmlns:affinity="https://www.affinity.studio/" style="fill-rule:evenodd;clip-rule:evenodd;stroke-linejoin:round;stroke-miterlimit:2;"><g id="Gemini_Generated_Image_59fdvs59fdvs59fd.jpg"><path d="M360.358,330.995c-1.707,20.097 -3.579,41.02 -25.247,71.735c-0.965,-0.469 -0.435,-0.949 -1.335,-1.386c-1.4,-0.681 -1.262,0.163 -1.338,0.086c-0.944,-0.951 -1.058,-7.375 -1.158,-7.893c-0.028,-0.143 -1.898,-7.715 -2.41,-8.778c-3.522,-7.311 -5.771,-1.206 -28.004,12.188c-4.224,2.545 -5.137,1.978 -5.381,4.484l-0.268,1.136l0.038,1.374c-71.366,31.521 -85.772,-4.646 -139.781,27.237c-7.064,4.17 1.19,-13.855 -23.269,-45.315c-17.723,-22.796 -50.773,-49.604 -56.157,-111.719c-0.042,-0.481 -0.495,-5.71 -1.244,-5.899c-4.408,-1.111 -21.441,18.668 -18.453,2.48c7.545,-40.871 34.6,-69.764 38.893,-68.403c5.45,1.728 -1.911,15.292 23.489,64.026c6.587,12.638 -19.267,-3.143 -19.957,1.047c-2.983,18.122 40.551,99.042 80.044,58.627c8.688,-8.891 41.852,-76.492 51.858,-93.732c9.597,-16.535 22.566,-42.053 24.446,-45.753c8.663,-17.045 -5.806,-22.672 -21.097,-32.084c-14.598,-8.985 -14.502,-9.935 -19.545,-9.61c-22.186,1.431 -20.431,-33.787 2.139,-29.272c6.877,1.376 9.35,8.478 12.63,9.694c44.739,16.584 45.321,16.285 48.761,14.627c5.332,-2.569 11.798,-14.622 8.979,-19.01c-29.682,-46.214 35.342,-81.534 61.191,-41.937c10.679,16.359 8.642,53.712 -31.424,56.831c-4.397,0.342 -16.254,17.288 -3.177,24.287c35.008,18.739 34.907,19.676 38.321,19.316c33.092,-3.489 17.371,42.363 -5.227,26.076c-3.852,-2.776 -2.531,-4.614 -8.306,-6.433c-40.535,-12.771 -44.179,-14.013 -51.935,-4.107c-2.366,3.022 -44.074,93.195 -55.248,116.593c-7.68,16.081 -26.253,45.369 -1.635,63.337c26.19,19.115 83.978,-3.807 80.064,-9.593c-1.729,-2.555 -25.612,-10.739 -11.119,-14.061c51.026,-11.696 58.969,-32.188 61.621,-24.848c0.127,0.351 0.018,0.345 0.242,4.653Zm-42.513,-215.26c20.883,-3.251 18.18,-24.659 8.789,-30.896c-22.716,-15.086 -43.522,27.336 -8.789,30.896Z" style="fill:#f4b645;"/><path d="M269.521,103.662c2.199,12.245 2.906,11.954 6.889,19.624c0.834,1.605 -1.49,7.166 -4.019,6.752c-0.403,-0.066 -35.785,-12.756 -37.544,-13.716c-0.817,-0.446 -10.46,-14.423 -27.303,-10.747c-24.95,5.447 -29.295,47.515 6.889,49.631c2.424,0.142 4.98,2.587 27.007,15.997c6.86,4.176 6.998,5.753 3.243,12.953c-1.652,3.168 -2.646,2.603 -38.178,2.595c-73.208,-0.018 -84.636,0.129 -102.796,0.397c-2.094,0.031 -5.788,-0.002 -6.562,0.787c-1.145,1.168 0.108,3.238 -1.279,3.977c-2.891,1.539 -15.657,9.717 -15.621,6.952c0.028,-2.156 0.22,-18.265 0.218,-22.426c-0.021,-45.848 -2.624,-59.67 16.055,-72.357c12.949,-8.795 34.21,-5.859 34.935,-4.886c2.895,3.89 -8.114,39.138 16.042,46.293c11.188,3.314 28.324,-2.241 28.561,-22.457c0.219,-18.647 -1.623,-24.794 3.176,-24.804c3.743,-0.007 86.952,-0.024 87.485,-0.016c3.729,0.056 2.396,1.768 2.8,5.451Z" style="fill:#eaedf1;"/><path d="M359.845,168.959c-7.074,-0.12 -7.224,0.329 -13.407,-3.051c-23.128,-12.644 -27.498,-14.145 -27.802,-15.475c-1.189,-5.194 8.808,-4.838 16.323,-7.975c16.389,-6.84 17.442,-17.72 20.141,-10.236c3.777,10.473 16.15,15.965 25.3,13.687c23.136,-5.76 16.677,-31.386 17.466,-45.569c0.351,-6.311 33.831,-0.578 38.894,26.186c1.758,9.292 0.739,219.079 0.496,219.292c-1.465,1.284 -1.593,0.071 -5.929,-1.978c-6.042,-2.856 -11.621,-3.584 -12.631,-4.604c-1.746,-1.764 0.086,-149.318 -0.957,-151.378c-1.129,-2.23 -28.356,-0.669 -35.106,-1.127c-7.319,-0.496 -0.234,-12.412 -22.789,-17.772Z" style="fill:#eaedf1;"/><path d="M354.852,396.849c0.374,-2.417 0.185,-11.198 7.657,-23.638c1.414,-2.354 4.378,-6.283 6.926,-8.829c33.991,-33.969 86.043,-5.111 86.559,32.533c0.99,72.277 -102.84,71.009 -101.141,-0.066Zm13.522,-1.047c-0.007,4.323 -2.416,18.672 12.341,32.51c28.812,27.017 79.819,-8.942 56.182,-48.292c-13.671,-22.759 -59.029,-28.706 -68.523,15.783Z" style="fill:#a2bcce;"/><path d="M126.935,404.201c7.448,2.167 12.617,25.365 11.286,26.675c-0.04,0.04 -18.868,2.843 -32.655,-3.72c-29.712,-14.144 -25.05,-43.462 -25.056,-67.771c-0.001,-2.273 -0.007,-4.545 -0.004,-6.818c0.006,-4.793 -1.103,-18.922 2.443,-10.442c4.679,11.189 17.107,24.287 17.132,28.614c0.091,15.633 -1.017,32.533 26.853,33.461Z" style="fill:#eaedf1;"/><path d="M141.229,112.802c-0.034,-3 -0.154,-13.725 0,-37.501c0.087,-13.394 11.792,-14.162 14.166,-13.8c13.659,2.084 10.998,16.906 10.976,36.53c-0.024,21.365 2.912,38.58 -12.128,38.97c-16.528,0.429 -13.019,-23.439 -13.014,-24.199Z" style="fill:#eaedf1;"/><path d="M363.954,103.674c0.069,-14.258 -1.212,-14.143 -0.956,-28.377c0.206,-11.472 9.475,-14.467 13.984,-13.863c14.256,1.909 11.287,21.314 11.286,21.825c-0.082,41.479 0.725,43.072 -1.626,47.42c-3.435,6.354 -29.552,18.475 -22.689,-27.004Z" style="fill:#eaedf1;"/><path d="M246.417,430.179c55.7,-2.62 68.272,-27.629 71.701,-20.948c9.047,17.629 23.327,5.541 24.371,4.212c3.684,-4.693 1.627,2.354 8.273,15.287c2.244,4.366 -2.447,2.639 -61.305,2.606c-39.609,-0.022 -40.075,2.434 -42.809,0.372c-1.129,-0.852 -0.206,-1.363 -0.231,-1.528Z" style="fill:#e8ecf0;"/><path d="M164.941,286.646c-2.542,24.413 -40.122,15.127 -32.994,-4.38c2.255,-6.171 7.464,-10.263 20.01,-9.132c12.758,1.15 12.869,12.884 12.985,13.512Z" style="fill:#eaeef2;"/><path d="M305.871,285.571c0.34,-1.473 1.2,-11.395 13.137,-12.439c4.194,-0.367 15.747,-1.467 19.679,8.849c6.396,16.781 -17.596,23.556 -27.494,15.847c-5.601,-4.362 -4.586,-5.212 -5.322,-12.257Z" style="fill:#ea2c2c;"/><path d="M305.839,232.152c0.292,-1.368 2.425,-11.373 12.004,-12.715c17.626,-2.469 20.569,7.649 21.085,9.424c6.125,21.059 -32.504,27.145 -33.089,3.291Z" style="fill:#eaedf1;"/><path d="M395.661,235.612c-5.985,20.486 -39.605,12.687 -32.385,-8.059c3.835,-11.02 33.614,-14.916 32.385,8.059Z" style="fill:#eaedf1;"/><path d="M395.794,288.867c-5.407,19.1 -27.212,11.564 -30.844,6.491c-5.984,-8.358 -3.241,-24.904 18.805,-22.151c12.225,1.526 12.06,14.081 12.039,15.661Z" style="fill:#eaeef1;"/><path d="M269.001,352.058c-1.606,-0 -13.937,1.712 -17.88,-8.703c-9.119,-24.089 38.733,-26.13 32.137,-1.166c-2.295,8.685 -12.876,9.732 -14.257,9.869Z" style="fill:#eaeef1;"/><path d="M215.812,237.915c-3.739,6.989 -3.903,8.92 -9.306,8.929c-1.069,0.002 -11.278,1.538 -16.718,-4.778c-8.631,-10.022 0.348,-26.977 20.096,-22.313c0.693,0.164 4.979,1.176 7.511,4.785c4.305,6.138 1.865,6.721 -1.582,13.378Z" style="fill:#eaedf1;"/><path d="M259.145,276.602c3.575,-5.185 4.694,-3.531 10.994,-3.506c8.085,0.033 11.641,6.362 11.984,7.02c8.309,15.944 -12.844,25.629 -25.368,18.628c-7.874,-4.402 -3.824,-9.106 2.39,-22.142Z" style="fill:#eaeef1;"/><path d="M416.909,405.788c0.641,0.653 7.002,7.137 6.677,9.284c-0.404,2.67 -4.058,4.894 -7.546,1.762c-14.808,-13.297 -14.824,-15.839 -14.835,-17.686c-0.153,-24.555 -0.867,-30.91 5.26,-29.412c6.787,1.659 0.022,25.705 4.718,30.423c0.453,0.455 0.424,0.417 5.725,5.629Z" style="fill:#d69261;"/><path d="M158.841,417.903c5.321,-2.741 12.338,-7.115 16.657,-8.534c8.617,-2.83 26.797,-5.106 45.133,-2.472c9.58,1.376 38.727,-0.311 50.507,-4.038c5.886,-1.862 29.568,-9.874 34.002,-12.834c4.698,-3.136 10.986,-8.385 15.481,-11.474c2.649,-1.82 10.189,-5.078 11.39,-4.346c1.835,1.118 3.06,3.914 3.868,6.427c0.537,1.67 1.323,3.943 1.242,6.414c3.52,-7.362 6.507,-13.235 8.405,-18.206c1.964,-5.143 3.826,-8.666 5.663,-17.977c0.508,-2.575 2.686,-10.669 3.642,-14.19c1.738,-6.404 3.86,-10.711 4.242,-11.76c0,0 0.512,0.286 0.916,1.11c0.716,1.459 0.506,3.35 0.368,4.971c-0.133,1.571 -0.284,3.178 -0.419,4.801c-0.143,1.714 -0.31,3.419 -0.494,4.955c-0.581,4.856 -1.361,10.221 -2.451,15.242c-1.486,6.846 -3.809,12.941 -5.039,16.392c-1.666,4.676 -3.2,7.628 -5.196,11.374c-1.607,3.016 -6.504,12.933 -6.504,12.933c-1.577,2.164 -3.925,7.76 -6.547,7.215c-2.622,-0.545 -2.598,-9.186 -2.754,-11.684c-0.184,-2.949 -2.979,-8.813 -4.472,-8.831c-2.201,-0.027 -10.445,9.973 -14.402,12.359c-6.544,3.944 -31.281,14.874 -37.977,16.993c-13.237,4.188 -44.117,7.304 -54.882,5.758c-15.859,-2.277 -32.245,0.164 -39.697,2.611c-6.535,2.146 -23.074,11.151 -25.771,10.66c-2.844,-0.518 -10.316,-19.838 -13.702,-27.742c-2.365,-5.521 -4.83,-10.69 -7.151,-13.035c-6.441,-6.508 -21.006,-24.537 -31.322,-38.592c-10.573,-14.404 -20.038,-47.436 -20.038,-47.436c2.07,3.639 8.529,13.399 11.516,18.19c3.903,6.263 7.977,10.688 14.309,18.81c10.287,13.197 29.046,33.19 35.227,39.435c3.114,3.146 6.823,9.853 9.995,17.259c2.489,5.813 4.706,14.305 6.254,19.241Z" style="fill:#d69261;"/><path d="M279,234.285c2.527,-5.913 2.326,-6.252 2.868,-6.188c5.576,0.659 -0.846,18.841 -7.345,17.929c-1.593,-0.223 1.668,-5.745 4.477,-11.741Z" style="fill:#ebeef2;"/><path d="M191.562,283.162c-2.474,5.049 -3.366,7.483 -4.709,6.178c-3.326,-3.231 6.702,-18.526 9.119,-15.035c0.451,0.651 0.215,0.786 -4.41,8.857Z" style="fill:#eaecf0;"/><path d="M205.091,297.453c0.067,-0.302 -0.5,-0.321 0.175,-3.862c0.647,-3.394 1.958,2.643 1.281,3.374c-0.348,0.375 -1.108,0.112 -1.456,0.488Z" style="fill:#f8bb41;"/></g></svg>